%TF.GenerationSoftware,KiCad,Pcbnew,8.0.1*%
%TF.CreationDate,2024-05-20T20:51:33+02:00*%
%TF.ProjectId,microled-square,6d696372-6f6c-4656-942d-737175617265,rev?*%
%TF.SameCoordinates,Original*%
%TF.FileFunction,Drillmap*%
%TF.FilePolarity,Positive*%
%FSLAX45Y45*%
G04 Gerber Fmt 4.5, Leading zero omitted, Abs format (unit mm)*
G04 Created by KiCad (PCBNEW 8.0.1) date 2024-05-20 20:51:33*
%MOMM*%
%LPD*%
G01*
G04 APERTURE LIST*
%ADD10C,0.050000*%
%ADD11C,0.200000*%
G04 APERTURE END LIST*
D10*
X2350000Y-2150000D02*
X5350000Y-2150000D01*
X5350000Y-5150000D01*
X2350000Y-5150000D01*
X2350000Y-2150000D01*
D11*
X2608277Y-5463984D02*
X2608277Y-5263984D01*
X2608277Y-5263984D02*
X2655896Y-5263984D01*
X2655896Y-5263984D02*
X2684467Y-5273508D01*
X2684467Y-5273508D02*
X2703515Y-5292555D01*
X2703515Y-5292555D02*
X2713039Y-5311603D01*
X2713039Y-5311603D02*
X2722563Y-5349698D01*
X2722563Y-5349698D02*
X2722563Y-5378270D01*
X2722563Y-5378270D02*
X2713039Y-5416365D01*
X2713039Y-5416365D02*
X2703515Y-5435412D01*
X2703515Y-5435412D02*
X2684467Y-5454460D01*
X2684467Y-5454460D02*
X2655896Y-5463984D01*
X2655896Y-5463984D02*
X2608277Y-5463984D01*
X2808277Y-5463984D02*
X2808277Y-5330650D01*
X2808277Y-5368746D02*
X2817801Y-5349698D01*
X2817801Y-5349698D02*
X2827324Y-5340174D01*
X2827324Y-5340174D02*
X2846372Y-5330650D01*
X2846372Y-5330650D02*
X2865420Y-5330650D01*
X2932086Y-5463984D02*
X2932086Y-5330650D01*
X2932086Y-5263984D02*
X2922562Y-5273508D01*
X2922562Y-5273508D02*
X2932086Y-5283031D01*
X2932086Y-5283031D02*
X2941610Y-5273508D01*
X2941610Y-5273508D02*
X2932086Y-5263984D01*
X2932086Y-5263984D02*
X2932086Y-5283031D01*
X3055896Y-5463984D02*
X3036848Y-5454460D01*
X3036848Y-5454460D02*
X3027324Y-5435412D01*
X3027324Y-5435412D02*
X3027324Y-5263984D01*
X3160658Y-5463984D02*
X3141610Y-5454460D01*
X3141610Y-5454460D02*
X3132086Y-5435412D01*
X3132086Y-5435412D02*
X3132086Y-5263984D01*
X3389229Y-5463984D02*
X3389229Y-5263984D01*
X3389229Y-5263984D02*
X3455896Y-5406841D01*
X3455896Y-5406841D02*
X3522562Y-5263984D01*
X3522562Y-5263984D02*
X3522562Y-5463984D01*
X3703515Y-5463984D02*
X3703515Y-5359222D01*
X3703515Y-5359222D02*
X3693991Y-5340174D01*
X3693991Y-5340174D02*
X3674943Y-5330650D01*
X3674943Y-5330650D02*
X3636848Y-5330650D01*
X3636848Y-5330650D02*
X3617801Y-5340174D01*
X3703515Y-5454460D02*
X3684467Y-5463984D01*
X3684467Y-5463984D02*
X3636848Y-5463984D01*
X3636848Y-5463984D02*
X3617801Y-5454460D01*
X3617801Y-5454460D02*
X3608277Y-5435412D01*
X3608277Y-5435412D02*
X3608277Y-5416365D01*
X3608277Y-5416365D02*
X3617801Y-5397317D01*
X3617801Y-5397317D02*
X3636848Y-5387793D01*
X3636848Y-5387793D02*
X3684467Y-5387793D01*
X3684467Y-5387793D02*
X3703515Y-5378270D01*
X3798753Y-5330650D02*
X3798753Y-5530650D01*
X3798753Y-5340174D02*
X3817801Y-5330650D01*
X3817801Y-5330650D02*
X3855896Y-5330650D01*
X3855896Y-5330650D02*
X3874943Y-5340174D01*
X3874943Y-5340174D02*
X3884467Y-5349698D01*
X3884467Y-5349698D02*
X3893991Y-5368746D01*
X3893991Y-5368746D02*
X3893991Y-5425889D01*
X3893991Y-5425889D02*
X3884467Y-5444936D01*
X3884467Y-5444936D02*
X3874943Y-5454460D01*
X3874943Y-5454460D02*
X3855896Y-5463984D01*
X3855896Y-5463984D02*
X3817801Y-5463984D01*
X3817801Y-5463984D02*
X3798753Y-5454460D01*
X3979705Y-5444936D02*
X3989229Y-5454460D01*
X3989229Y-5454460D02*
X3979705Y-5463984D01*
X3979705Y-5463984D02*
X3970182Y-5454460D01*
X3970182Y-5454460D02*
X3979705Y-5444936D01*
X3979705Y-5444936D02*
X3979705Y-5463984D01*
X3979705Y-5340174D02*
X3989229Y-5349698D01*
X3989229Y-5349698D02*
X3979705Y-5359222D01*
X3979705Y-5359222D02*
X3970182Y-5349698D01*
X3970182Y-5349698D02*
X3979705Y-5340174D01*
X3979705Y-5340174D02*
X3979705Y-5359222D01*
M02*
