G04 #@! TF.GenerationSoftware,KiCad,Pcbnew,8.0.1*
G04 #@! TF.CreationDate,2024-05-20T20:52:02+02:00*
G04 #@! TF.ProjectId,microled-square,6d696372-6f6c-4656-942d-737175617265,rev?*
G04 #@! TF.SameCoordinates,Original*
G04 #@! TF.FileFunction,Paste,Bot*
G04 #@! TF.FilePolarity,Positive*
%FSLAX46Y46*%
G04 Gerber Fmt 4.6, Leading zero omitted, Abs format (unit mm)*
G04 Created by KiCad (PCBNEW 8.0.1) date 2024-05-20 20:52:02*
%MOMM*%
%LPD*%
G01*
G04 APERTURE LIST*
%ADD10R,0.450000X0.450000*%
G04 APERTURE END LIST*
D10*
X27090000Y-23150000D03*
X26240000Y-23150000D03*
X27090000Y-24000000D03*
X26240000Y-24000000D03*
X38990000Y-42125000D03*
X38140000Y-42125000D03*
X38990000Y-42975000D03*
X38140000Y-42975000D03*
X51000000Y-23150000D03*
X50150000Y-23150000D03*
X51000000Y-24000000D03*
X50150000Y-24000000D03*
X45090000Y-35800000D03*
X44240000Y-35800000D03*
X45090000Y-36650000D03*
X44240000Y-36650000D03*
X27090000Y-29475000D03*
X26240000Y-29475000D03*
X27090000Y-30325000D03*
X26240000Y-30325000D03*
X38990000Y-29475000D03*
X38140000Y-29475000D03*
X38990000Y-30325000D03*
X38140000Y-30325000D03*
X45090000Y-23150000D03*
X44240000Y-23150000D03*
X45090000Y-24000000D03*
X44240000Y-24000000D03*
X32790000Y-48450000D03*
X31940000Y-48450000D03*
X32790000Y-49300000D03*
X31940000Y-49300000D03*
X51000000Y-29475000D03*
X50150000Y-29475000D03*
X51000000Y-30325000D03*
X50150000Y-30325000D03*
X27090000Y-42125000D03*
X26240000Y-42125000D03*
X27090000Y-42975000D03*
X26240000Y-42975000D03*
X32790000Y-35800000D03*
X31940000Y-35800000D03*
X32790000Y-36650000D03*
X31940000Y-36650000D03*
X51000000Y-48450000D03*
X50150000Y-48450000D03*
X51000000Y-49300000D03*
X50150000Y-49300000D03*
X27090000Y-35800000D03*
X26240000Y-35800000D03*
X27090000Y-36650000D03*
X26240000Y-36650000D03*
X32790000Y-23150000D03*
X31940000Y-23150000D03*
X32790000Y-24000000D03*
X31940000Y-24000000D03*
X51000000Y-42125000D03*
X50150000Y-42125000D03*
X51000000Y-42975000D03*
X50150000Y-42975000D03*
X38990000Y-48450000D03*
X38140000Y-48450000D03*
X38990000Y-49300000D03*
X38140000Y-49300000D03*
X38990000Y-35800000D03*
X38140000Y-35800000D03*
X38990000Y-36650000D03*
X38140000Y-36650000D03*
X45090000Y-42125000D03*
X44240000Y-42125000D03*
X45090000Y-42975000D03*
X44240000Y-42975000D03*
X27090000Y-48450000D03*
X26240000Y-48450000D03*
X27090000Y-49300000D03*
X26240000Y-49300000D03*
X45090000Y-48450000D03*
X44240000Y-48450000D03*
X45090000Y-49300000D03*
X44240000Y-49300000D03*
X45090000Y-29475000D03*
X44240000Y-29475000D03*
X45090000Y-30325000D03*
X44240000Y-30325000D03*
X32790000Y-42125000D03*
X31940000Y-42125000D03*
X32790000Y-42975000D03*
X31940000Y-42975000D03*
X32790000Y-29475000D03*
X31940000Y-29475000D03*
X32790000Y-30325000D03*
X31940000Y-30325000D03*
X51000000Y-35800000D03*
X50150000Y-35800000D03*
X51000000Y-36650000D03*
X50150000Y-36650000D03*
X38990000Y-23150000D03*
X38140000Y-23150000D03*
X38990000Y-24000000D03*
X38140000Y-24000000D03*
M02*
