G04 #@! TF.GenerationSoftware,KiCad,Pcbnew,8.0.1*
G04 #@! TF.CreationDate,2024-05-20T20:52:03+02:00*
G04 #@! TF.ProjectId,microled-square,6d696372-6f6c-4656-942d-737175617265,rev?*
G04 #@! TF.SameCoordinates,Original*
G04 #@! TF.FileFunction,Legend,Top*
G04 #@! TF.FilePolarity,Positive*
%FSLAX46Y46*%
G04 Gerber Fmt 4.6, Leading zero omitted, Abs format (unit mm)*
G04 Created by KiCad (PCBNEW 8.0.1) date 2024-05-20 20:52:03*
%MOMM*%
%LPD*%
G01*
G04 APERTURE LIST*
G04 Aperture macros list*
%AMRoundRect*
0 Rectangle with rounded corners*
0 $1 Rounding radius*
0 $2 $3 $4 $5 $6 $7 $8 $9 X,Y pos of 4 corners*
0 Add a 4 corners polygon primitive as box body*
4,1,4,$2,$3,$4,$5,$6,$7,$8,$9,$2,$3,0*
0 Add four circle primitives for the rounded corners*
1,1,$1+$1,$2,$3*
1,1,$1+$1,$4,$5*
1,1,$1+$1,$6,$7*
1,1,$1+$1,$8,$9*
0 Add four rect primitives between the rounded corners*
20,1,$1+$1,$2,$3,$4,$5,0*
20,1,$1+$1,$4,$5,$6,$7,0*
20,1,$1+$1,$6,$7,$8,$9,0*
20,1,$1+$1,$8,$9,$2,$3,0*%
G04 Aperture macros list end*
%ADD10C,0.100000*%
%ADD11C,0.300000*%
%ADD12C,0.150000*%
%ADD13C,0.000000*%
%ADD14C,0.127000*%
%ADD15C,0.120000*%
%ADD16RoundRect,1.000000X-0.375000X-0.000010X0.375000X-0.000010X0.375000X0.000010X-0.375000X0.000010X0*%
%ADD17RoundRect,0.225000X-0.250000X0.225000X-0.250000X-0.225000X0.250000X-0.225000X0.250000X0.225000X0*%
%ADD18C,0.600000*%
G04 APERTURE END LIST*
D10*
X35089598Y-46372419D02*
X35089598Y-47086704D01*
X35089598Y-47086704D02*
X35041979Y-47229561D01*
X35041979Y-47229561D02*
X34946741Y-47324800D01*
X34946741Y-47324800D02*
X34803884Y-47372419D01*
X34803884Y-47372419D02*
X34708646Y-47372419D01*
X36041979Y-47372419D02*
X35565789Y-47372419D01*
X35565789Y-47372419D02*
X35565789Y-46372419D01*
X36946741Y-47277180D02*
X36899122Y-47324800D01*
X36899122Y-47324800D02*
X36756265Y-47372419D01*
X36756265Y-47372419D02*
X36661027Y-47372419D01*
X36661027Y-47372419D02*
X36518170Y-47324800D01*
X36518170Y-47324800D02*
X36422932Y-47229561D01*
X36422932Y-47229561D02*
X36375313Y-47134323D01*
X36375313Y-47134323D02*
X36327694Y-46943847D01*
X36327694Y-46943847D02*
X36327694Y-46800990D01*
X36327694Y-46800990D02*
X36375313Y-46610514D01*
X36375313Y-46610514D02*
X36422932Y-46515276D01*
X36422932Y-46515276D02*
X36518170Y-46420038D01*
X36518170Y-46420038D02*
X36661027Y-46372419D01*
X36661027Y-46372419D02*
X36756265Y-46372419D01*
X36756265Y-46372419D02*
X36899122Y-46420038D01*
X36899122Y-46420038D02*
X36946741Y-46467657D01*
X37661027Y-46372419D02*
X37661027Y-47086704D01*
X37661027Y-47086704D02*
X37613408Y-47229561D01*
X37613408Y-47229561D02*
X37518170Y-47324800D01*
X37518170Y-47324800D02*
X37375313Y-47372419D01*
X37375313Y-47372419D02*
X37280075Y-47372419D01*
X38613408Y-47372419D02*
X38137218Y-47372419D01*
X38137218Y-47372419D02*
X38137218Y-46372419D01*
X39518170Y-47277180D02*
X39470551Y-47324800D01*
X39470551Y-47324800D02*
X39327694Y-47372419D01*
X39327694Y-47372419D02*
X39232456Y-47372419D01*
X39232456Y-47372419D02*
X39089599Y-47324800D01*
X39089599Y-47324800D02*
X38994361Y-47229561D01*
X38994361Y-47229561D02*
X38946742Y-47134323D01*
X38946742Y-47134323D02*
X38899123Y-46943847D01*
X38899123Y-46943847D02*
X38899123Y-46800990D01*
X38899123Y-46800990D02*
X38946742Y-46610514D01*
X38946742Y-46610514D02*
X38994361Y-46515276D01*
X38994361Y-46515276D02*
X39089599Y-46420038D01*
X39089599Y-46420038D02*
X39232456Y-46372419D01*
X39232456Y-46372419D02*
X39327694Y-46372419D01*
X39327694Y-46372419D02*
X39470551Y-46420038D01*
X39470551Y-46420038D02*
X39518170Y-46467657D01*
X40232456Y-46372419D02*
X40232456Y-47086704D01*
X40232456Y-47086704D02*
X40184837Y-47229561D01*
X40184837Y-47229561D02*
X40089599Y-47324800D01*
X40089599Y-47324800D02*
X39946742Y-47372419D01*
X39946742Y-47372419D02*
X39851504Y-47372419D01*
X41184837Y-47372419D02*
X40708647Y-47372419D01*
X40708647Y-47372419D02*
X40708647Y-46372419D01*
X42089599Y-47277180D02*
X42041980Y-47324800D01*
X42041980Y-47324800D02*
X41899123Y-47372419D01*
X41899123Y-47372419D02*
X41803885Y-47372419D01*
X41803885Y-47372419D02*
X41661028Y-47324800D01*
X41661028Y-47324800D02*
X41565790Y-47229561D01*
X41565790Y-47229561D02*
X41518171Y-47134323D01*
X41518171Y-47134323D02*
X41470552Y-46943847D01*
X41470552Y-46943847D02*
X41470552Y-46800990D01*
X41470552Y-46800990D02*
X41518171Y-46610514D01*
X41518171Y-46610514D02*
X41565790Y-46515276D01*
X41565790Y-46515276D02*
X41661028Y-46420038D01*
X41661028Y-46420038D02*
X41803885Y-46372419D01*
X41803885Y-46372419D02*
X41899123Y-46372419D01*
X41899123Y-46372419D02*
X42041980Y-46420038D01*
X42041980Y-46420038D02*
X42089599Y-46467657D01*
X42803885Y-46372419D02*
X42803885Y-47086704D01*
X42803885Y-47086704D02*
X42756266Y-47229561D01*
X42756266Y-47229561D02*
X42661028Y-47324800D01*
X42661028Y-47324800D02*
X42518171Y-47372419D01*
X42518171Y-47372419D02*
X42422933Y-47372419D01*
X43756266Y-47372419D02*
X43280076Y-47372419D01*
X43280076Y-47372419D02*
X43280076Y-46372419D01*
X44661028Y-47277180D02*
X44613409Y-47324800D01*
X44613409Y-47324800D02*
X44470552Y-47372419D01*
X44470552Y-47372419D02*
X44375314Y-47372419D01*
X44375314Y-47372419D02*
X44232457Y-47324800D01*
X44232457Y-47324800D02*
X44137219Y-47229561D01*
X44137219Y-47229561D02*
X44089600Y-47134323D01*
X44089600Y-47134323D02*
X44041981Y-46943847D01*
X44041981Y-46943847D02*
X44041981Y-46800990D01*
X44041981Y-46800990D02*
X44089600Y-46610514D01*
X44089600Y-46610514D02*
X44137219Y-46515276D01*
X44137219Y-46515276D02*
X44232457Y-46420038D01*
X44232457Y-46420038D02*
X44375314Y-46372419D01*
X44375314Y-46372419D02*
X44470552Y-46372419D01*
X44470552Y-46372419D02*
X44613409Y-46420038D01*
X44613409Y-46420038D02*
X44661028Y-46467657D01*
D11*
X28478572Y-45149757D02*
X28335715Y-45078328D01*
X28335715Y-45078328D02*
X28121429Y-45078328D01*
X28121429Y-45078328D02*
X27907143Y-45149757D01*
X27907143Y-45149757D02*
X27764286Y-45292614D01*
X27764286Y-45292614D02*
X27692857Y-45435471D01*
X27692857Y-45435471D02*
X27621429Y-45721185D01*
X27621429Y-45721185D02*
X27621429Y-45935471D01*
X27621429Y-45935471D02*
X27692857Y-46221185D01*
X27692857Y-46221185D02*
X27764286Y-46364042D01*
X27764286Y-46364042D02*
X27907143Y-46506900D01*
X27907143Y-46506900D02*
X28121429Y-46578328D01*
X28121429Y-46578328D02*
X28264286Y-46578328D01*
X28264286Y-46578328D02*
X28478572Y-46506900D01*
X28478572Y-46506900D02*
X28550000Y-46435471D01*
X28550000Y-46435471D02*
X28550000Y-45935471D01*
X28550000Y-45935471D02*
X28264286Y-45935471D01*
X29407143Y-45078328D02*
X29407143Y-45435471D01*
X29050000Y-45292614D02*
X29407143Y-45435471D01*
X29407143Y-45435471D02*
X29764286Y-45292614D01*
X29192857Y-45721185D02*
X29407143Y-45435471D01*
X29407143Y-45435471D02*
X29621429Y-45721185D01*
X30550000Y-45078328D02*
X30550000Y-45435471D01*
X30192857Y-45292614D02*
X30550000Y-45435471D01*
X30550000Y-45435471D02*
X30907143Y-45292614D01*
X30335714Y-45721185D02*
X30550000Y-45435471D01*
X30550000Y-45435471D02*
X30764286Y-45721185D01*
X31692857Y-45078328D02*
X31692857Y-45435471D01*
X31335714Y-45292614D02*
X31692857Y-45435471D01*
X31692857Y-45435471D02*
X32050000Y-45292614D01*
X31478571Y-45721185D02*
X31692857Y-45435471D01*
X31692857Y-45435471D02*
X31907143Y-45721185D01*
D12*
X37966166Y-20755533D02*
X37966166Y-21322200D01*
X37966166Y-21322200D02*
X37999500Y-21388866D01*
X37999500Y-21388866D02*
X38032833Y-21422200D01*
X38032833Y-21422200D02*
X38099500Y-21455533D01*
X38099500Y-21455533D02*
X38232833Y-21455533D01*
X38232833Y-21455533D02*
X38299500Y-21422200D01*
X38299500Y-21422200D02*
X38332833Y-21388866D01*
X38332833Y-21388866D02*
X38366166Y-21322200D01*
X38366166Y-21322200D02*
X38366166Y-20755533D01*
X39066166Y-21455533D02*
X38666166Y-21455533D01*
X38866166Y-21455533D02*
X38866166Y-20755533D01*
X38866166Y-20755533D02*
X38799499Y-20855533D01*
X38799499Y-20855533D02*
X38732833Y-20922200D01*
X38732833Y-20922200D02*
X38666166Y-20955533D01*
X52789580Y-26166666D02*
X52837200Y-26214285D01*
X52837200Y-26214285D02*
X52884819Y-26357142D01*
X52884819Y-26357142D02*
X52884819Y-26452380D01*
X52884819Y-26452380D02*
X52837200Y-26595237D01*
X52837200Y-26595237D02*
X52741961Y-26690475D01*
X52741961Y-26690475D02*
X52646723Y-26738094D01*
X52646723Y-26738094D02*
X52456247Y-26785713D01*
X52456247Y-26785713D02*
X52313390Y-26785713D01*
X52313390Y-26785713D02*
X52122914Y-26738094D01*
X52122914Y-26738094D02*
X52027676Y-26690475D01*
X52027676Y-26690475D02*
X51932438Y-26595237D01*
X51932438Y-26595237D02*
X51884819Y-26452380D01*
X51884819Y-26452380D02*
X51884819Y-26357142D01*
X51884819Y-26357142D02*
X51932438Y-26214285D01*
X51932438Y-26214285D02*
X51980057Y-26166666D01*
X52884819Y-25214285D02*
X52884819Y-25785713D01*
X52884819Y-25499999D02*
X51884819Y-25499999D01*
X51884819Y-25499999D02*
X52027676Y-25595237D01*
X52027676Y-25595237D02*
X52122914Y-25690475D01*
X52122914Y-25690475D02*
X52170533Y-25785713D01*
D13*
G36*
X25579692Y-50628307D02*
G01*
X25540615Y-50667384D01*
X25501538Y-50628307D01*
X25540615Y-50589230D01*
X25579692Y-50628307D01*
G37*
G36*
X31805948Y-44206666D02*
G01*
X31795220Y-44253129D01*
X31753846Y-44258769D01*
X31689516Y-44230174D01*
X31701743Y-44206666D01*
X31794494Y-44197313D01*
X31805948Y-44206666D01*
G37*
G36*
X26431239Y-50407975D02*
G01*
X26439384Y-50432923D01*
X26501161Y-50692113D01*
X26495302Y-50856039D01*
X26439384Y-50901846D01*
X26393312Y-50832338D01*
X26369751Y-50657506D01*
X26369021Y-50569692D01*
X26377685Y-50378356D01*
X26395999Y-50329165D01*
X26431239Y-50407975D01*
G37*
G36*
X28659173Y-45165796D02*
G01*
X28579454Y-45281538D01*
X28563161Y-45299344D01*
X28441386Y-45474281D01*
X28392034Y-45631498D01*
X28349329Y-45823014D01*
X28309138Y-45900000D01*
X28261844Y-45940752D01*
X28261112Y-45850020D01*
X28278929Y-45743692D01*
X28357339Y-45474005D01*
X28470210Y-45256195D01*
X28593029Y-45132347D01*
X28643117Y-45118461D01*
X28659173Y-45165796D01*
G37*
G36*
X33812315Y-42916544D02*
G01*
X34093257Y-43135701D01*
X34420451Y-43463621D01*
X34619762Y-43753070D01*
X34705515Y-44030455D01*
X34702375Y-44258523D01*
X34695706Y-44485442D01*
X34730168Y-44662038D01*
X34737465Y-44676925D01*
X34779511Y-44875118D01*
X34756735Y-45148699D01*
X34681279Y-45437008D01*
X34565283Y-45679387D01*
X34526323Y-45731797D01*
X34395028Y-45931357D01*
X34322170Y-46123224D01*
X34321104Y-46129903D01*
X34219827Y-46315541D01*
X34041621Y-46440411D01*
X33789395Y-46564307D01*
X33787621Y-48733077D01*
X33785846Y-50901846D01*
X31089538Y-50901846D01*
X28393230Y-50901846D01*
X28393230Y-50667384D01*
X28393230Y-50432923D01*
X27748461Y-50439093D01*
X27468074Y-50446146D01*
X27273612Y-50459673D01*
X27194487Y-50477220D01*
X27201384Y-50484683D01*
X27286384Y-50586963D01*
X27297880Y-50654359D01*
X27282793Y-50737333D01*
X27228464Y-50676910D01*
X27126111Y-50613637D01*
X27025424Y-50666847D01*
X26986461Y-50789227D01*
X26942764Y-50890237D01*
X26908307Y-50901846D01*
X26843065Y-50830810D01*
X26812255Y-50641072D01*
X26818695Y-50402967D01*
X26772611Y-50195022D01*
X26605269Y-50069733D01*
X26427880Y-50042154D01*
X26222056Y-50109583D01*
X26095310Y-50310557D01*
X26048832Y-50643100D01*
X26048615Y-50672472D01*
X26013607Y-50853649D01*
X25933837Y-50901846D01*
X25855728Y-50852483D01*
X25870316Y-50765077D01*
X25895269Y-50674105D01*
X25841674Y-50694695D01*
X25776914Y-50745538D01*
X25677964Y-50818835D01*
X25677725Y-50781187D01*
X25725954Y-50686923D01*
X25769435Y-50592727D01*
X25756838Y-50550154D01*
X25892307Y-50550154D01*
X25931384Y-50589230D01*
X25970461Y-50550154D01*
X25931384Y-50511077D01*
X25892307Y-50550154D01*
X25756838Y-50550154D01*
X25753871Y-50540125D01*
X25650528Y-50516999D01*
X25430674Y-50511235D01*
X25308903Y-50511077D01*
X25023082Y-50503323D01*
X24863868Y-50475604D01*
X24802129Y-50421232D01*
X24798154Y-50393846D01*
X24830440Y-50330014D01*
X24946484Y-50293552D01*
X25175068Y-50278259D01*
X25342481Y-50276615D01*
X25638681Y-50270307D01*
X25817991Y-50244808D01*
X25919550Y-50190260D01*
X25971633Y-50118118D01*
X26064363Y-50012521D01*
X26130690Y-50005500D01*
X26200584Y-50007172D01*
X26205328Y-49988151D01*
X26274868Y-49944009D01*
X26447288Y-49912593D01*
X26506599Y-49908019D01*
X26718767Y-49914528D01*
X26836224Y-49981874D01*
X26890704Y-50073805D01*
X26997063Y-50209028D01*
X27173240Y-50233159D01*
X27195125Y-50230891D01*
X27393852Y-50214621D01*
X27677587Y-50199181D01*
X27904769Y-50190539D01*
X28393230Y-50175791D01*
X28393230Y-49714007D01*
X28393230Y-49252223D01*
X26732461Y-49261182D01*
X26231444Y-49263633D01*
X25777954Y-49265379D01*
X25397247Y-49266359D01*
X25114581Y-49266514D01*
X24955211Y-49265787D01*
X24934923Y-49265377D01*
X24847122Y-49229599D01*
X24808684Y-49112639D01*
X32379077Y-49112639D01*
X32450809Y-49152860D01*
X32642514Y-49170346D01*
X32828461Y-49166823D01*
X33085487Y-49146498D01*
X33225220Y-49108882D01*
X33286672Y-49037586D01*
X33302820Y-48967538D01*
X33300748Y-48852962D01*
X33223704Y-48802864D01*
X33031630Y-48791694D01*
X33027133Y-48791692D01*
X32779249Y-48826287D01*
X32557705Y-48914015D01*
X32411129Y-49030794D01*
X32379077Y-49112639D01*
X24808684Y-49112639D01*
X24806433Y-49105789D01*
X24798154Y-48914358D01*
X24798424Y-48908923D01*
X25032615Y-48908923D01*
X25071692Y-48948000D01*
X25110769Y-48908923D01*
X25071692Y-48869846D01*
X25032615Y-48908923D01*
X24798424Y-48908923D01*
X24809054Y-48695015D01*
X24855791Y-48586831D01*
X24959420Y-48545357D01*
X24974000Y-48543128D01*
X25089033Y-48499346D01*
X25137818Y-48410038D01*
X25345230Y-48410038D01*
X25357305Y-48656076D01*
X25388732Y-48822484D01*
X25423384Y-48869846D01*
X25468224Y-48799611D01*
X25478299Y-48735696D01*
X25753940Y-48735696D01*
X25821882Y-48850307D01*
X25923981Y-48977513D01*
X26013676Y-49034127D01*
X26048615Y-48999189D01*
X26039050Y-48987077D01*
X27064615Y-48987077D01*
X27103692Y-49026154D01*
X27142769Y-48987077D01*
X27103692Y-48948000D01*
X27064615Y-48987077D01*
X26039050Y-48987077D01*
X25997079Y-48933931D01*
X25881237Y-48823343D01*
X25766270Y-48724329D01*
X25753940Y-48735696D01*
X25478299Y-48735696D01*
X25496493Y-48620268D01*
X25501538Y-48484343D01*
X25512521Y-48244000D01*
X25525624Y-48205538D01*
X25977828Y-48205538D01*
X25989079Y-48375681D01*
X26011526Y-48435156D01*
X26022221Y-48420461D01*
X26101118Y-48326200D01*
X26175571Y-48365514D01*
X26204923Y-48502523D01*
X26241723Y-48675888D01*
X26327908Y-48803887D01*
X26427158Y-48836299D01*
X26438777Y-48830769D01*
X27377230Y-48830769D01*
X27416307Y-48869846D01*
X27455384Y-48830769D01*
X28315077Y-48830769D01*
X28354154Y-48869846D01*
X28393230Y-48830769D01*
X28369778Y-48807316D01*
X31225875Y-48807316D01*
X31237322Y-48902787D01*
X31311724Y-49043129D01*
X31418287Y-49038932D01*
X31543362Y-48895102D01*
X31610276Y-48768718D01*
X31676657Y-48539491D01*
X31674881Y-48324989D01*
X31611690Y-48172648D01*
X31519109Y-48127384D01*
X31416870Y-48196425D01*
X31321056Y-48368153D01*
X31250960Y-48589480D01*
X31225875Y-48807316D01*
X28369778Y-48807316D01*
X28354154Y-48791692D01*
X28315077Y-48830769D01*
X27455384Y-48830769D01*
X27416307Y-48791692D01*
X27377230Y-48830769D01*
X26438777Y-48830769D01*
X26441414Y-48829514D01*
X26469973Y-48736362D01*
X26458869Y-48598173D01*
X26457604Y-48441207D01*
X26518692Y-48411292D01*
X26613059Y-48508699D01*
X26659625Y-48596307D01*
X26778480Y-48755951D01*
X26934957Y-48773008D01*
X27145293Y-48649018D01*
X27152702Y-48643056D01*
X27310442Y-48420941D01*
X27342595Y-48232749D01*
X27360041Y-48042207D01*
X27572417Y-48042207D01*
X27670307Y-48087019D01*
X27789315Y-48171773D01*
X27839348Y-48324534D01*
X27846154Y-48476558D01*
X27864297Y-48673233D01*
X27909665Y-48783257D01*
X27928589Y-48791692D01*
X27976062Y-48719978D01*
X27991285Y-48525797D01*
X27987205Y-48420461D01*
X27965301Y-48195388D01*
X27918397Y-48083195D01*
X27817728Y-48040503D01*
X27728923Y-48030922D01*
X27578607Y-48023102D01*
X27572417Y-48042207D01*
X27360041Y-48042207D01*
X27362503Y-48015317D01*
X27370722Y-47981787D01*
X30845708Y-47981787D01*
X30848410Y-48118665D01*
X30894547Y-48245566D01*
X30999959Y-48419307D01*
X31101508Y-48437537D01*
X31189981Y-48300962D01*
X31215005Y-48221038D01*
X31231251Y-48092920D01*
X31832000Y-48092920D01*
X31870725Y-48271750D01*
X31959268Y-48320123D01*
X32056175Y-48234473D01*
X32101392Y-48116080D01*
X32110650Y-47926455D01*
X32047443Y-47808341D01*
X31935243Y-47800620D01*
X31916963Y-47810560D01*
X31855664Y-47919538D01*
X31832000Y-48092920D01*
X31231251Y-48092920D01*
X31241063Y-48015539D01*
X31221173Y-47826375D01*
X31164421Y-47710577D01*
X31131613Y-47697538D01*
X31042122Y-47749463D01*
X30935035Y-47851851D01*
X30845708Y-47981787D01*
X27370722Y-47981787D01*
X27401663Y-47855568D01*
X27402438Y-47853846D01*
X27406549Y-47796800D01*
X27338679Y-47760692D01*
X27173265Y-47740492D01*
X26884744Y-47731171D01*
X26771818Y-47729758D01*
X26419709Y-47735914D01*
X26166045Y-47760380D01*
X26037414Y-47800354D01*
X26030273Y-47807912D01*
X25994563Y-47935995D01*
X25977882Y-48147236D01*
X25977828Y-48205538D01*
X25525624Y-48205538D01*
X25556584Y-48114660D01*
X25650400Y-48051879D01*
X25665713Y-48046733D01*
X25769322Y-47982192D01*
X25749916Y-47919896D01*
X25638307Y-47889844D01*
X25519729Y-47904598D01*
X25421110Y-47947464D01*
X25368545Y-48037044D01*
X25348026Y-48213908D01*
X25345230Y-48410038D01*
X25137818Y-48410038D01*
X25153264Y-48381761D01*
X25188923Y-48167934D01*
X25217726Y-47976262D01*
X25274545Y-47854194D01*
X25394131Y-47771919D01*
X25611233Y-47699622D01*
X25790519Y-47651820D01*
X25866593Y-47567536D01*
X25946527Y-47384771D01*
X25972347Y-47299764D01*
X26171799Y-46807083D01*
X26474764Y-46430825D01*
X26883764Y-46168824D01*
X27401318Y-46018914D01*
X27475945Y-46007650D01*
X27692945Y-45971320D01*
X27784817Y-45927019D01*
X27782102Y-45852634D01*
X27758111Y-45803368D01*
X27704775Y-45546955D01*
X27709695Y-45527891D01*
X27846154Y-45527891D01*
X27918143Y-45834586D01*
X28113225Y-46139932D01*
X28400067Y-46418381D01*
X28747338Y-46644386D01*
X29123708Y-46792398D01*
X29452622Y-46837846D01*
X29631202Y-46856709D01*
X29898399Y-46905825D01*
X30156615Y-46964941D01*
X30420699Y-47035697D01*
X30554589Y-47088213D01*
X30581012Y-47136636D01*
X30524369Y-47193878D01*
X30441443Y-47269116D01*
X30432371Y-47355022D01*
X30498696Y-47505683D01*
X30535230Y-47574782D01*
X30644246Y-47750350D01*
X30733979Y-47847210D01*
X30752236Y-47853846D01*
X30845924Y-47805287D01*
X31005433Y-47682288D01*
X31091621Y-47606827D01*
X31113257Y-47584015D01*
X31321171Y-47584015D01*
X31334220Y-47717454D01*
X31357981Y-47766170D01*
X31484301Y-47906019D01*
X31615783Y-47912342D01*
X31712179Y-47783728D01*
X31713832Y-47778644D01*
X31716923Y-47590524D01*
X31672176Y-47456507D01*
X31602336Y-47326009D01*
X31733614Y-47326009D01*
X31803209Y-47434925D01*
X31927123Y-47549756D01*
X32106888Y-47686490D01*
X32249025Y-47765251D01*
X32279796Y-47772516D01*
X32370541Y-47710719D01*
X32486601Y-47551271D01*
X32533796Y-47466190D01*
X32629536Y-47269095D01*
X32685611Y-47135423D01*
X32691692Y-47110956D01*
X32624101Y-47094583D01*
X32456057Y-47110589D01*
X32398615Y-47120543D01*
X32174955Y-47156660D01*
X32005680Y-47173623D01*
X31988307Y-47173814D01*
X31823499Y-47218063D01*
X31770815Y-47250970D01*
X31733614Y-47326009D01*
X31602336Y-47326009D01*
X31581847Y-47287725D01*
X31425539Y-47444033D01*
X31321171Y-47584015D01*
X31113257Y-47584015D01*
X31263269Y-47425847D01*
X31352392Y-47281420D01*
X31350420Y-47197881D01*
X31248786Y-47199563D01*
X31233025Y-47205272D01*
X31144993Y-47215320D01*
X31152406Y-47175195D01*
X31249560Y-47129139D01*
X31459097Y-47082768D01*
X31737399Y-47045516D01*
X31763409Y-47043019D01*
X32083600Y-46996585D01*
X32397471Y-46923043D01*
X32672345Y-46833909D01*
X32875544Y-46740701D01*
X32974391Y-46654936D01*
X32973374Y-46616561D01*
X32883476Y-46587291D01*
X32668274Y-46556562D01*
X32358692Y-46527782D01*
X31985658Y-46504359D01*
X31932080Y-46501791D01*
X31505209Y-46473697D01*
X31100206Y-46432119D01*
X30762895Y-46382612D01*
X30549579Y-46334156D01*
X30248802Y-46268844D01*
X29857090Y-46225948D01*
X29487076Y-46212615D01*
X29145985Y-46207664D01*
X28923595Y-46187996D01*
X28782480Y-46146392D01*
X28685213Y-46075630D01*
X28664627Y-46053941D01*
X28647795Y-46017230D01*
X28823077Y-46017230D01*
X29565538Y-46063425D01*
X30406226Y-46135784D01*
X31380480Y-46256009D01*
X32144615Y-46369374D01*
X32445204Y-46398998D01*
X32808603Y-46408912D01*
X33191430Y-46401015D01*
X33550301Y-46377204D01*
X33841835Y-46339376D01*
X34022648Y-46289429D01*
X34027302Y-46287026D01*
X34146875Y-46200465D01*
X34176473Y-46151250D01*
X34102597Y-46132229D01*
X33898377Y-46115360D01*
X33589774Y-46101889D01*
X33202749Y-46093059D01*
X32906473Y-46090336D01*
X32397877Y-46081893D01*
X31934697Y-46062105D01*
X31551058Y-46033078D01*
X31281087Y-45996923D01*
X31235754Y-45987115D01*
X30962702Y-45921662D01*
X30749485Y-45876803D01*
X30541903Y-45843918D01*
X30285755Y-45814388D01*
X29936769Y-45780526D01*
X29612799Y-45742133D01*
X29421433Y-45697406D01*
X29338970Y-45639574D01*
X29331077Y-45607499D01*
X29368943Y-45532426D01*
X29505483Y-45527025D01*
X29585077Y-45540318D01*
X29794895Y-45575472D01*
X30092458Y-45619150D01*
X30386154Y-45658371D01*
X30762257Y-45709504D01*
X31189988Y-45772838D01*
X31519384Y-45825284D01*
X32028773Y-45891272D01*
X32559335Y-45927263D01*
X33075308Y-45933730D01*
X33540933Y-45911146D01*
X33920449Y-45859982D01*
X34157616Y-45790438D01*
X34400232Y-45647425D01*
X34488742Y-45504299D01*
X34489230Y-45492748D01*
X34464647Y-45385583D01*
X34430615Y-45377086D01*
X34332358Y-45414475D01*
X34125347Y-45483203D01*
X33850563Y-45569756D01*
X33790989Y-45588043D01*
X33487336Y-45672837D01*
X33225430Y-45720710D01*
X32947196Y-45737191D01*
X32594564Y-45727809D01*
X32423297Y-45718272D01*
X32001535Y-45683297D01*
X31557325Y-45630985D01*
X31166122Y-45570677D01*
X31050461Y-45548320D01*
X30486733Y-45434001D01*
X30051851Y-45355906D01*
X29723017Y-45312373D01*
X29477431Y-45301740D01*
X29292294Y-45322343D01*
X29144806Y-45372520D01*
X29083643Y-45404889D01*
X28898363Y-45546318D01*
X28827742Y-45709554D01*
X28823077Y-45787149D01*
X28823077Y-46017230D01*
X28647795Y-46017230D01*
X28571534Y-45850899D01*
X28619804Y-45624865D01*
X28801345Y-45398633D01*
X28933358Y-45296725D01*
X29227329Y-45166417D01*
X29606973Y-45120801D01*
X30087697Y-45159731D01*
X30674280Y-45280407D01*
X31054349Y-45355977D01*
X31513694Y-45417807D01*
X32016124Y-45464121D01*
X32525451Y-45493138D01*
X33005486Y-45503083D01*
X33420040Y-45492177D01*
X33732925Y-45458642D01*
X33831507Y-45435511D01*
X34253809Y-45280466D01*
X34538012Y-45120338D01*
X34678621Y-44959676D01*
X34670143Y-44803029D01*
X34642934Y-44763631D01*
X34563633Y-44715767D01*
X34429778Y-44732650D01*
X34202397Y-44819979D01*
X34174504Y-44832152D01*
X33959368Y-44943237D01*
X33818814Y-45047614D01*
X33787688Y-45098923D01*
X33739604Y-45189213D01*
X33610707Y-45160357D01*
X33415456Y-45017123D01*
X33347321Y-44953742D01*
X33096739Y-44710868D01*
X32599262Y-44955776D01*
X32202539Y-45109295D01*
X31797315Y-45194261D01*
X31413834Y-45212041D01*
X31082339Y-45164002D01*
X30833073Y-45051510D01*
X30696281Y-44875930D01*
X30694232Y-44869705D01*
X30672367Y-44709990D01*
X30733221Y-44676435D01*
X30856936Y-44777261D01*
X30872661Y-44795852D01*
X30992725Y-44895014D01*
X31165778Y-44990970D01*
X31343304Y-45063385D01*
X31476787Y-45091924D01*
X31519384Y-45066918D01*
X31466910Y-44991326D01*
X31367779Y-44896527D01*
X31233603Y-44720059D01*
X31230080Y-44695039D01*
X31403243Y-44695039D01*
X31494033Y-44796134D01*
X31508504Y-44808446D01*
X31680925Y-44917660D01*
X31821119Y-44957200D01*
X31881476Y-44939064D01*
X31794782Y-44890001D01*
X31781382Y-44884523D01*
X31626055Y-44796531D01*
X31589779Y-44760734D01*
X32248093Y-44760734D01*
X32333487Y-44805846D01*
X32441147Y-44742920D01*
X32457230Y-44682102D01*
X32411789Y-44590952D01*
X32364423Y-44589295D01*
X32261215Y-44667085D01*
X32248093Y-44760734D01*
X31589779Y-44760734D01*
X31561846Y-44733169D01*
X31448537Y-44655480D01*
X31417080Y-44652138D01*
X31403243Y-44695039D01*
X31230080Y-44695039D01*
X31200747Y-44486736D01*
X31225000Y-44363198D01*
X31381522Y-44363198D01*
X31391481Y-44455430D01*
X31492420Y-44584769D01*
X31675465Y-44710174D01*
X31856767Y-44716940D01*
X31990076Y-44609471D01*
X32019835Y-44534563D01*
X32125319Y-44346570D01*
X32299060Y-44223965D01*
X32483522Y-44205152D01*
X32503587Y-44211671D01*
X32614190Y-44312308D01*
X32690931Y-44452151D01*
X32789361Y-44616571D01*
X32896649Y-44625330D01*
X32979130Y-44515585D01*
X33187441Y-44515585D01*
X33241802Y-44587719D01*
X33316923Y-44649538D01*
X33576187Y-44777066D01*
X33848515Y-44792056D01*
X34020307Y-44727692D01*
X34054909Y-44679154D01*
X33956336Y-44655316D01*
X33809997Y-44650735D01*
X33595409Y-44632867D01*
X33454420Y-44589612D01*
X33434154Y-44571384D01*
X33322669Y-44503678D01*
X33253695Y-44494968D01*
X33187441Y-44515585D01*
X32979130Y-44515585D01*
X33007084Y-44478390D01*
X33018528Y-44454154D01*
X33125894Y-44287980D01*
X33226098Y-44277501D01*
X33277846Y-44336923D01*
X33397007Y-44424259D01*
X33531542Y-44387235D01*
X33636506Y-44245691D01*
X33644189Y-44219692D01*
X34020307Y-44219692D01*
X34059963Y-44316960D01*
X34104323Y-44321943D01*
X34185068Y-44241259D01*
X34188338Y-44219692D01*
X34127494Y-44128054D01*
X34104323Y-44117441D01*
X34033059Y-44155167D01*
X34020307Y-44219692D01*
X33644189Y-44219692D01*
X33659310Y-44168525D01*
X33754295Y-43900061D01*
X33893147Y-43742221D01*
X34049072Y-43704515D01*
X34195277Y-43796450D01*
X34279547Y-43948420D01*
X34379040Y-44116155D01*
X34486784Y-44162445D01*
X34608980Y-44086070D01*
X34626407Y-43949154D01*
X34559074Y-43785294D01*
X34426994Y-43628085D01*
X34250176Y-43511125D01*
X34073250Y-43468164D01*
X33944295Y-43453337D01*
X33945402Y-43428440D01*
X33962649Y-43423173D01*
X34056940Y-43361683D01*
X34055729Y-43315008D01*
X33936762Y-43253022D01*
X33734963Y-43249882D01*
X33509514Y-43299133D01*
X33319595Y-43394319D01*
X33318090Y-43395469D01*
X33192029Y-43525913D01*
X33188576Y-43603989D01*
X33296284Y-43600488D01*
X33383245Y-43561716D01*
X33573782Y-43495054D01*
X33683016Y-43483400D01*
X33702998Y-43508598D01*
X33597831Y-43566179D01*
X33487091Y-43609037D01*
X33274640Y-43703361D01*
X33132907Y-43801905D01*
X33107498Y-43837328D01*
X32999461Y-43915539D01*
X32773707Y-43946069D01*
X32758974Y-43946154D01*
X32473190Y-43977392D01*
X32196454Y-44053206D01*
X32181182Y-44059396D01*
X32007802Y-44122739D01*
X31915034Y-44138902D01*
X31910154Y-44133562D01*
X31978030Y-44070773D01*
X32146669Y-43995200D01*
X32363587Y-43924838D01*
X32576301Y-43877687D01*
X32684569Y-43868000D01*
X32894526Y-43839370D01*
X32957926Y-43764064D01*
X32871456Y-43657957D01*
X32743629Y-43584855D01*
X32392745Y-43496237D01*
X32045224Y-43561379D01*
X31712728Y-43777953D01*
X31695230Y-43794097D01*
X31502956Y-44012550D01*
X31446218Y-44176954D01*
X31527303Y-44280126D01*
X31538923Y-44285163D01*
X31566337Y-44319569D01*
X31499846Y-44330753D01*
X31381522Y-44363198D01*
X31225000Y-44363198D01*
X31264493Y-44162037D01*
X31266466Y-44155247D01*
X31313558Y-43939296D01*
X31320818Y-43779116D01*
X31315379Y-43756486D01*
X31340149Y-43672615D01*
X31519384Y-43672615D01*
X31558461Y-43711692D01*
X31597538Y-43672615D01*
X31558461Y-43633538D01*
X31519384Y-43672615D01*
X31340149Y-43672615D01*
X31346636Y-43650649D01*
X31435081Y-43538397D01*
X31678995Y-43538397D01*
X31713191Y-43531274D01*
X31753846Y-43507778D01*
X31905010Y-43435433D01*
X32118714Y-43351099D01*
X32144615Y-43341859D01*
X32418154Y-43245565D01*
X32145662Y-43284988D01*
X31925023Y-43347237D01*
X31761193Y-43444487D01*
X31754893Y-43450907D01*
X31678995Y-43538397D01*
X31435081Y-43538397D01*
X31469381Y-43494865D01*
X31557250Y-43410624D01*
X31782226Y-43245302D01*
X32006703Y-43174176D01*
X32205950Y-43162238D01*
X32416803Y-43155138D01*
X32490923Y-43132458D01*
X32451835Y-43091013D01*
X33082461Y-43091013D01*
X33137337Y-43108291D01*
X33270411Y-43044973D01*
X33280285Y-43038599D01*
X33408372Y-42938229D01*
X33444117Y-42875096D01*
X33443286Y-42874158D01*
X33353478Y-42876439D01*
X33218933Y-42944599D01*
X33108576Y-43037213D01*
X33082461Y-43091013D01*
X32451835Y-43091013D01*
X32447680Y-43086607D01*
X32428450Y-43075029D01*
X32209140Y-43019744D01*
X31900416Y-43033998D01*
X31549204Y-43110883D01*
X31202427Y-43243493D01*
X31167692Y-43260617D01*
X30390672Y-43655554D01*
X29743175Y-43990880D01*
X29213717Y-44274431D01*
X28790816Y-44514046D01*
X28462989Y-44717562D01*
X28218753Y-44892819D01*
X28046625Y-45047655D01*
X27935122Y-45189907D01*
X27872762Y-45327413D01*
X27848062Y-45468013D01*
X27846154Y-45527891D01*
X27709695Y-45527891D01*
X27780519Y-45253483D01*
X27974686Y-44955934D01*
X28061769Y-44863603D01*
X28233954Y-44729829D01*
X28529722Y-44539349D01*
X28931468Y-44302522D01*
X29421585Y-44029708D01*
X29982469Y-43731267D01*
X30013345Y-43715187D01*
X30600323Y-43413183D01*
X31070189Y-43181763D01*
X31442274Y-43015252D01*
X31735907Y-42907973D01*
X31970419Y-42854252D01*
X32165139Y-42848413D01*
X32339399Y-42884779D01*
X32512527Y-42957675D01*
X32542077Y-42972691D01*
X32713915Y-43046640D01*
X32837199Y-43031381D01*
X32978582Y-42933614D01*
X33242731Y-42791045D01*
X33514690Y-42784275D01*
X33812315Y-42916544D01*
G37*
D14*
X29165000Y-22591500D02*
X29165000Y-43070000D01*
X29165000Y-43070000D02*
X46965000Y-43070000D01*
X29836541Y-21920000D02*
X29165000Y-22591500D01*
X33561000Y-27848000D02*
X33561000Y-20495000D01*
X33565000Y-20496000D02*
X42560000Y-20496000D01*
X42560000Y-20496000D02*
X42560000Y-27848000D01*
X42560000Y-27848000D02*
X33561000Y-27848000D01*
X46965000Y-21920000D02*
X29836541Y-21920000D01*
X46965000Y-43070000D02*
X46965000Y-21920000D01*
D15*
X50490000Y-25859420D02*
X50490000Y-26140580D01*
X51510000Y-25859420D02*
X51510000Y-26140580D01*
%LPC*%
D16*
X30000000Y-24800000D03*
X30000000Y-27340000D03*
X30000000Y-29880000D03*
X30000000Y-32420000D03*
X30000000Y-34960000D03*
X30000000Y-37500000D03*
X30000000Y-40040000D03*
X46165000Y-40040000D03*
X46165000Y-37500000D03*
X46165000Y-34960000D03*
X46165000Y-32420000D03*
X46165000Y-29880000D03*
X46165000Y-27340000D03*
X46165000Y-24800000D03*
D17*
X51000000Y-25225000D03*
X51000000Y-26775000D03*
D18*
X47200000Y-50300000D03*
X41000000Y-50300000D03*
X34900000Y-50400000D03*
X28900000Y-50400000D03*
X48200000Y-44600000D03*
X42100000Y-44700000D03*
X35900000Y-44700000D03*
X30000000Y-44700000D03*
X25200000Y-44600000D03*
X49400000Y-38200000D03*
X40500000Y-38000000D03*
X34400000Y-38000000D03*
X26600000Y-38100000D03*
X43400000Y-25200000D03*
X24500000Y-25800000D03*
X32500000Y-25400000D03*
X26300000Y-31900000D03*
X42700000Y-31800000D03*
X50200000Y-31800000D03*
X49000000Y-22500000D03*
X24500000Y-24000000D03*
%LPD*%
M02*
