G04 #@! TF.GenerationSoftware,KiCad,Pcbnew,8.0.1*
G04 #@! TF.CreationDate,2024-05-20T20:52:02+02:00*
G04 #@! TF.ProjectId,microled-square,6d696372-6f6c-4656-942d-737175617265,rev?*
G04 #@! TF.SameCoordinates,Original*
G04 #@! TF.FileFunction,Copper,L1,Top*
G04 #@! TF.FilePolarity,Positive*
%FSLAX46Y46*%
G04 Gerber Fmt 4.6, Leading zero omitted, Abs format (unit mm)*
G04 Created by KiCad (PCBNEW 8.0.1) date 2024-05-20 20:52:02*
%MOMM*%
%LPD*%
G01*
G04 APERTURE LIST*
G04 Aperture macros list*
%AMRoundRect*
0 Rectangle with rounded corners*
0 $1 Rounding radius*
0 $2 $3 $4 $5 $6 $7 $8 $9 X,Y pos of 4 corners*
0 Add a 4 corners polygon primitive as box body*
4,1,4,$2,$3,$4,$5,$6,$7,$8,$9,$2,$3,0*
0 Add four circle primitives for the rounded corners*
1,1,$1+$1,$2,$3*
1,1,$1+$1,$4,$5*
1,1,$1+$1,$6,$7*
1,1,$1+$1,$8,$9*
0 Add four rect primitives between the rounded corners*
20,1,$1+$1,$2,$3,$4,$5,0*
20,1,$1+$1,$4,$5,$6,$7,0*
20,1,$1+$1,$6,$7,$8,$9,0*
20,1,$1+$1,$8,$9,$2,$3,0*%
G04 Aperture macros list end*
G04 #@! TA.AperFunction,SMDPad,CuDef*
%ADD10RoundRect,1.000000X-0.375000X-0.000010X0.375000X-0.000010X0.375000X0.000010X-0.375000X0.000010X0*%
G04 #@! TD*
G04 #@! TA.AperFunction,SMDPad,CuDef*
%ADD11RoundRect,0.225000X-0.250000X0.225000X-0.250000X-0.225000X0.250000X-0.225000X0.250000X0.225000X0*%
G04 #@! TD*
G04 #@! TA.AperFunction,ViaPad*
%ADD12C,0.600000*%
G04 #@! TD*
G04 #@! TA.AperFunction,Conductor*
%ADD13C,0.200000*%
G04 #@! TD*
G04 APERTURE END LIST*
D10*
X30000000Y-24800000D03*
X30000000Y-27340000D03*
X30000000Y-29880000D03*
X30000000Y-32420000D03*
X30000000Y-34960000D03*
X30000000Y-37500000D03*
X30000000Y-40040000D03*
X46165000Y-40040000D03*
X46165000Y-37500000D03*
X46165000Y-34960000D03*
X46165000Y-32420000D03*
X46165000Y-29880000D03*
X46165000Y-27340000D03*
X46165000Y-24800000D03*
D11*
X51000000Y-25225000D03*
X51000000Y-26775000D03*
D12*
X47200000Y-50300000D03*
X41000000Y-50300000D03*
X34900000Y-50400000D03*
X28900000Y-50400000D03*
X48200000Y-44600000D03*
X42100000Y-44700000D03*
X35900000Y-44700000D03*
X30000000Y-44700000D03*
X25200000Y-44600000D03*
X49400000Y-38200000D03*
X40500000Y-38000000D03*
X34400000Y-38000000D03*
X26600000Y-38100000D03*
X43400000Y-25200000D03*
X24500000Y-25800000D03*
X32500000Y-25400000D03*
X26300000Y-31900000D03*
X42700000Y-31800000D03*
X50200000Y-31800000D03*
X49000000Y-22500000D03*
X24500000Y-24000000D03*
D13*
X49000000Y-22500000D02*
X51000000Y-24500000D01*
X51000000Y-24500000D02*
X51000000Y-25225000D01*
X46165000Y-24800000D02*
X50575000Y-24800000D01*
X50575000Y-24800000D02*
X51000000Y-25225000D01*
X46165000Y-27340000D02*
X50435000Y-27340000D01*
X50435000Y-27340000D02*
X51000000Y-26775000D01*
X30000000Y-24800000D02*
X25300000Y-24800000D01*
X25300000Y-24800000D02*
X24500000Y-24000000D01*
G04 #@! TA.AperFunction,Conductor*
G36*
X32791039Y-22020185D02*
G01*
X32836794Y-22072989D01*
X32848000Y-22124500D01*
X32848000Y-24505000D01*
X34626000Y-24505000D01*
X34626000Y-22600000D01*
X35515000Y-22600000D01*
X35515000Y-32758000D01*
X37033000Y-32758000D01*
X37100039Y-32777685D01*
X37145794Y-32830489D01*
X37157000Y-32882000D01*
X37157000Y-36370000D01*
X41221000Y-36370000D01*
X41221000Y-32760000D01*
X40846000Y-32760000D01*
X40778961Y-32740315D01*
X40733206Y-32687511D01*
X40722000Y-32636000D01*
X40722000Y-25902000D01*
X41484000Y-25902000D01*
X41484000Y-28569000D01*
X43262000Y-28569000D01*
X43262000Y-25902000D01*
X41484000Y-25902000D01*
X40722000Y-25902000D01*
X40722000Y-22600000D01*
X35515000Y-22600000D01*
X34626000Y-22600000D01*
X34626000Y-22124500D01*
X34645685Y-22057461D01*
X34698489Y-22011706D01*
X34750000Y-22000500D01*
X41360000Y-22000500D01*
X41427039Y-22020185D01*
X41472794Y-22072989D01*
X41484000Y-22124500D01*
X41484000Y-24505000D01*
X43262000Y-24505000D01*
X43262000Y-22124500D01*
X43281685Y-22057461D01*
X43334489Y-22011706D01*
X43386000Y-22000500D01*
X48151928Y-22000500D01*
X48218967Y-22020185D01*
X48264722Y-22072989D01*
X48274666Y-22142147D01*
X48268970Y-22165454D01*
X48214632Y-22320742D01*
X48214630Y-22320750D01*
X48194435Y-22499996D01*
X48194435Y-22500003D01*
X48214630Y-22679249D01*
X48214631Y-22679254D01*
X48274211Y-22849523D01*
X48370184Y-23002262D01*
X48497738Y-23129816D01*
X48650478Y-23225789D01*
X48820745Y-23285368D01*
X48907669Y-23295161D01*
X48972080Y-23322226D01*
X48981465Y-23330700D01*
X49638584Y-23987819D01*
X49672069Y-24049142D01*
X49667085Y-24118834D01*
X49625213Y-24174767D01*
X49559749Y-24199184D01*
X49550903Y-24199500D01*
X47999326Y-24199500D01*
X47932287Y-24179815D01*
X47892803Y-24138974D01*
X47892656Y-24138727D01*
X47765366Y-23925106D01*
X47765363Y-23925103D01*
X47765360Y-23925097D01*
X47604651Y-23735350D01*
X47604649Y-23735348D01*
X47414902Y-23574639D01*
X47285845Y-23497738D01*
X47201273Y-23447344D01*
X47201271Y-23447343D01*
X47201269Y-23447342D01*
X46969625Y-23356953D01*
X46969615Y-23356950D01*
X46726238Y-23305919D01*
X46726235Y-23305918D01*
X46622850Y-23299500D01*
X46622842Y-23299500D01*
X45707158Y-23299500D01*
X45707149Y-23299500D01*
X45603764Y-23305918D01*
X45603761Y-23305919D01*
X45360384Y-23356950D01*
X45360374Y-23356953D01*
X45128730Y-23447342D01*
X44915097Y-23574639D01*
X44725350Y-23735348D01*
X44725348Y-23735350D01*
X44564639Y-23925097D01*
X44437342Y-24138730D01*
X44346953Y-24370374D01*
X44346950Y-24370384D01*
X44295919Y-24613761D01*
X44295918Y-24613764D01*
X44289500Y-24717149D01*
X44289500Y-24882850D01*
X44295918Y-24986235D01*
X44295919Y-24986238D01*
X44346950Y-25229615D01*
X44346953Y-25229625D01*
X44437342Y-25461269D01*
X44437344Y-25461273D01*
X44564634Y-25674894D01*
X44564639Y-25674902D01*
X44725348Y-25864649D01*
X44725349Y-25864650D01*
X44856471Y-25975705D01*
X44894906Y-26034053D01*
X44895693Y-26103918D01*
X44858584Y-26163119D01*
X44856472Y-26164949D01*
X44725702Y-26275707D01*
X44565046Y-26465391D01*
X44437793Y-26678950D01*
X44347435Y-26910517D01*
X44347432Y-26910527D01*
X44309801Y-27090000D01*
X48020198Y-27090000D01*
X48006569Y-27025000D01*
X50025001Y-27025000D01*
X50025001Y-27048322D01*
X50035144Y-27147607D01*
X50088452Y-27308481D01*
X50088457Y-27308492D01*
X50177424Y-27452728D01*
X50177427Y-27452732D01*
X50297267Y-27572572D01*
X50297271Y-27572575D01*
X50441507Y-27661542D01*
X50441518Y-27661547D01*
X50602393Y-27714855D01*
X50701683Y-27724999D01*
X50749999Y-27724998D01*
X50750000Y-27724998D01*
X50750000Y-27025000D01*
X51250000Y-27025000D01*
X51250000Y-27724999D01*
X51298308Y-27724999D01*
X51298322Y-27724998D01*
X51397607Y-27714855D01*
X51558481Y-27661547D01*
X51558492Y-27661542D01*
X51702728Y-27572575D01*
X51702732Y-27572572D01*
X51822572Y-27452732D01*
X51822575Y-27452728D01*
X51911542Y-27308492D01*
X51911547Y-27308481D01*
X51964855Y-27147606D01*
X51974999Y-27048322D01*
X51975000Y-27048309D01*
X51975000Y-27025000D01*
X51250000Y-27025000D01*
X50750000Y-27025000D01*
X50025001Y-27025000D01*
X48006569Y-27025000D01*
X47982567Y-26910527D01*
X47982564Y-26910517D01*
X47892206Y-26678950D01*
X47764953Y-26465391D01*
X47604298Y-26275707D01*
X47473527Y-26164949D01*
X47435093Y-26106600D01*
X47434306Y-26036735D01*
X47471415Y-25977535D01*
X47473463Y-25975760D01*
X47604650Y-25864650D01*
X47658222Y-25801398D01*
X47765360Y-25674902D01*
X47765361Y-25674898D01*
X47765366Y-25674894D01*
X47892656Y-25461273D01*
X47892658Y-25461269D01*
X47892803Y-25461026D01*
X47944030Y-25413512D01*
X47999326Y-25400500D01*
X49902527Y-25400500D01*
X49969566Y-25420185D01*
X50015321Y-25472989D01*
X50025885Y-25511898D01*
X50034651Y-25597708D01*
X50034651Y-25597710D01*
X50087996Y-25758694D01*
X50088001Y-25758705D01*
X50177029Y-25903040D01*
X50177032Y-25903044D01*
X50186660Y-25912672D01*
X50220145Y-25973995D01*
X50215161Y-26043687D01*
X50186663Y-26088031D01*
X50177428Y-26097265D01*
X50177424Y-26097271D01*
X50088457Y-26241507D01*
X50088452Y-26241518D01*
X50035144Y-26402393D01*
X50025000Y-26501677D01*
X50025000Y-26525000D01*
X51974999Y-26525000D01*
X51974999Y-26501692D01*
X51974998Y-26501677D01*
X51964855Y-26402392D01*
X51911547Y-26241518D01*
X51911542Y-26241507D01*
X51822575Y-26097271D01*
X51822572Y-26097267D01*
X51813339Y-26088034D01*
X51779854Y-26026711D01*
X51784838Y-25957019D01*
X51813343Y-25912668D01*
X51822968Y-25903044D01*
X51912003Y-25758697D01*
X51965349Y-25597708D01*
X51975500Y-25498345D01*
X51975499Y-24951656D01*
X51968470Y-24882850D01*
X51965349Y-24852292D01*
X51965348Y-24852289D01*
X51955386Y-24822226D01*
X51912003Y-24691303D01*
X51911999Y-24691297D01*
X51911998Y-24691294D01*
X51822970Y-24546959D01*
X51822969Y-24546958D01*
X51822968Y-24546956D01*
X51703044Y-24427032D01*
X51703043Y-24427031D01*
X51674155Y-24409212D01*
X51624076Y-24378323D01*
X51577353Y-24326377D01*
X51569402Y-24304885D01*
X51559577Y-24268215D01*
X51519904Y-24199500D01*
X51500212Y-24165392D01*
X51480521Y-24131285D01*
X51364385Y-24015149D01*
X51364374Y-24015139D01*
X49830700Y-22481465D01*
X49797215Y-22420142D01*
X49795163Y-22407686D01*
X49785368Y-22320745D01*
X49768571Y-22272744D01*
X49731030Y-22165454D01*
X49727469Y-22095675D01*
X49762198Y-22035048D01*
X49824191Y-22002821D01*
X49848072Y-22000500D01*
X52875500Y-22000500D01*
X52942539Y-22020185D01*
X52988294Y-22072989D01*
X52999500Y-22124500D01*
X52999500Y-50875500D01*
X52979815Y-50942539D01*
X52927011Y-50988294D01*
X52875500Y-50999500D01*
X24124500Y-50999500D01*
X24057461Y-50979815D01*
X24011706Y-50927011D01*
X24000500Y-50875500D01*
X24000500Y-24848071D01*
X24020185Y-24781032D01*
X24072989Y-24735277D01*
X24142147Y-24725333D01*
X24165455Y-24731030D01*
X24320741Y-24785367D01*
X24320742Y-24785367D01*
X24320745Y-24785368D01*
X24407669Y-24795161D01*
X24472080Y-24822226D01*
X24481465Y-24830700D01*
X24815139Y-25164374D01*
X24815149Y-25164385D01*
X24819479Y-25168715D01*
X24819480Y-25168716D01*
X24931284Y-25280520D01*
X25018095Y-25330639D01*
X25018097Y-25330641D01*
X25056151Y-25352611D01*
X25068215Y-25359577D01*
X25220943Y-25400501D01*
X25220946Y-25400501D01*
X25386653Y-25400501D01*
X25386669Y-25400500D01*
X28165674Y-25400500D01*
X28232713Y-25420185D01*
X28272197Y-25461026D01*
X28272342Y-25461269D01*
X28272344Y-25461273D01*
X28353642Y-25597710D01*
X28399639Y-25674902D01*
X28560348Y-25864649D01*
X28560350Y-25864651D01*
X28691084Y-25975378D01*
X28729519Y-26033727D01*
X28730306Y-26103592D01*
X28693197Y-26162792D01*
X28691084Y-26164622D01*
X28560350Y-26275348D01*
X28560348Y-26275350D01*
X28399639Y-26465097D01*
X28272342Y-26678730D01*
X28181953Y-26910374D01*
X28181950Y-26910384D01*
X28130919Y-27153761D01*
X28130918Y-27153764D01*
X28124500Y-27257149D01*
X28124500Y-27422850D01*
X28130918Y-27526235D01*
X28130919Y-27526238D01*
X28181950Y-27769615D01*
X28181953Y-27769625D01*
X28272342Y-28001269D01*
X28399639Y-28214902D01*
X28560348Y-28404649D01*
X28560350Y-28404651D01*
X28691084Y-28515378D01*
X28729519Y-28573727D01*
X28730306Y-28643592D01*
X28693197Y-28702792D01*
X28691084Y-28704622D01*
X28560350Y-28815348D01*
X28560348Y-28815350D01*
X28399639Y-29005097D01*
X28272342Y-29218730D01*
X28181953Y-29450374D01*
X28181950Y-29450384D01*
X28130919Y-29693761D01*
X28130918Y-29693764D01*
X28124500Y-29797149D01*
X28124500Y-29962850D01*
X28130918Y-30066235D01*
X28130919Y-30066238D01*
X28181950Y-30309615D01*
X28181953Y-30309625D01*
X28272342Y-30541269D01*
X28399639Y-30754902D01*
X28560348Y-30944649D01*
X28560350Y-30944651D01*
X28691084Y-31055378D01*
X28729519Y-31113727D01*
X28730306Y-31183592D01*
X28693197Y-31242792D01*
X28691084Y-31244622D01*
X28560350Y-31355348D01*
X28560348Y-31355350D01*
X28399639Y-31545097D01*
X28272342Y-31758730D01*
X28181953Y-31990374D01*
X28181950Y-31990384D01*
X28130919Y-32233761D01*
X28130918Y-32233764D01*
X28124500Y-32337149D01*
X28124500Y-32502850D01*
X28130918Y-32606235D01*
X28130919Y-32606238D01*
X28181950Y-32849615D01*
X28181953Y-32849625D01*
X28272342Y-33081269D01*
X28399639Y-33294902D01*
X28560348Y-33484649D01*
X28560350Y-33484651D01*
X28691084Y-33595378D01*
X28729519Y-33653727D01*
X28730306Y-33723592D01*
X28693197Y-33782792D01*
X28691084Y-33784622D01*
X28560350Y-33895348D01*
X28560348Y-33895350D01*
X28399639Y-34085097D01*
X28272342Y-34298730D01*
X28181953Y-34530374D01*
X28181950Y-34530384D01*
X28130919Y-34773761D01*
X28130918Y-34773764D01*
X28124500Y-34877149D01*
X28124500Y-35042850D01*
X28130918Y-35146235D01*
X28130919Y-35146238D01*
X28181950Y-35389615D01*
X28181953Y-35389625D01*
X28272342Y-35621269D01*
X28399639Y-35834902D01*
X28560348Y-36024649D01*
X28560350Y-36024651D01*
X28691084Y-36135378D01*
X28729519Y-36193727D01*
X28730306Y-36263592D01*
X28693197Y-36322792D01*
X28691084Y-36324622D01*
X28560350Y-36435348D01*
X28560348Y-36435350D01*
X28399639Y-36625097D01*
X28272342Y-36838730D01*
X28181953Y-37070374D01*
X28181950Y-37070384D01*
X28130919Y-37313761D01*
X28130918Y-37313764D01*
X28124500Y-37417149D01*
X28124500Y-37582850D01*
X28130918Y-37686235D01*
X28130919Y-37686238D01*
X28181950Y-37929615D01*
X28181953Y-37929625D01*
X28272342Y-38161269D01*
X28399639Y-38374902D01*
X28560348Y-38564649D01*
X28560350Y-38564651D01*
X28691084Y-38675378D01*
X28729519Y-38733727D01*
X28730306Y-38803592D01*
X28693197Y-38862792D01*
X28691084Y-38864622D01*
X28560350Y-38975348D01*
X28560348Y-38975350D01*
X28399639Y-39165097D01*
X28272342Y-39378730D01*
X28181953Y-39610374D01*
X28181950Y-39610384D01*
X28130919Y-39853761D01*
X28130918Y-39853764D01*
X28124500Y-39957149D01*
X28124500Y-40122850D01*
X28130918Y-40226235D01*
X28130919Y-40226238D01*
X28181950Y-40469615D01*
X28181953Y-40469625D01*
X28272342Y-40701269D01*
X28399639Y-40914902D01*
X28560348Y-41104649D01*
X28560350Y-41104651D01*
X28750097Y-41265360D01*
X28750103Y-41265363D01*
X28750106Y-41265366D01*
X28963727Y-41392656D01*
X28963730Y-41392657D01*
X29195374Y-41483046D01*
X29195381Y-41483048D01*
X29195386Y-41483050D01*
X29438763Y-41534081D01*
X29542158Y-41540500D01*
X29542169Y-41540500D01*
X30457831Y-41540500D01*
X30457842Y-41540500D01*
X30561237Y-41534081D01*
X30804614Y-41483050D01*
X30804621Y-41483046D01*
X30804625Y-41483046D01*
X30883980Y-41452080D01*
X31036273Y-41392656D01*
X31249894Y-41265366D01*
X31249898Y-41265361D01*
X31249902Y-41265360D01*
X31439649Y-41104651D01*
X31439651Y-41104649D01*
X31600360Y-40914902D01*
X31600361Y-40914898D01*
X31600366Y-40914894D01*
X31727656Y-40701273D01*
X31818050Y-40469614D01*
X31869081Y-40226237D01*
X31875500Y-40122850D01*
X44289500Y-40122850D01*
X44295918Y-40226235D01*
X44295919Y-40226238D01*
X44346950Y-40469615D01*
X44346953Y-40469625D01*
X44437342Y-40701269D01*
X44564639Y-40914902D01*
X44725348Y-41104649D01*
X44725350Y-41104651D01*
X44915097Y-41265360D01*
X44915103Y-41265363D01*
X44915106Y-41265366D01*
X45128727Y-41392656D01*
X45128730Y-41392657D01*
X45360374Y-41483046D01*
X45360381Y-41483048D01*
X45360386Y-41483050D01*
X45603763Y-41534081D01*
X45707158Y-41540500D01*
X45707169Y-41540500D01*
X46622831Y-41540500D01*
X46622842Y-41540500D01*
X46726237Y-41534081D01*
X46969614Y-41483050D01*
X46969621Y-41483046D01*
X46969625Y-41483046D01*
X47048980Y-41452080D01*
X47201273Y-41392656D01*
X47414894Y-41265366D01*
X47414898Y-41265361D01*
X47414902Y-41265360D01*
X47604649Y-41104651D01*
X47604651Y-41104649D01*
X47765360Y-40914902D01*
X47765361Y-40914898D01*
X47765366Y-40914894D01*
X47892656Y-40701273D01*
X47983050Y-40469614D01*
X48034081Y-40226237D01*
X48040500Y-40122842D01*
X48040500Y-39957158D01*
X48034081Y-39853763D01*
X47983050Y-39610386D01*
X47983048Y-39610381D01*
X47983046Y-39610374D01*
X47892657Y-39378730D01*
X47892656Y-39378727D01*
X47765366Y-39165106D01*
X47765363Y-39165103D01*
X47765360Y-39165097D01*
X47604651Y-38975350D01*
X47604650Y-38975349D01*
X47473915Y-38864622D01*
X47435480Y-38806274D01*
X47434693Y-38736409D01*
X47471802Y-38677208D01*
X47473915Y-38675378D01*
X47604650Y-38564650D01*
X47604651Y-38564649D01*
X47765360Y-38374902D01*
X47765361Y-38374898D01*
X47765366Y-38374894D01*
X47892656Y-38161273D01*
X47983050Y-37929614D01*
X48034081Y-37686237D01*
X48040500Y-37582842D01*
X48040500Y-37417158D01*
X48034081Y-37313763D01*
X47983050Y-37070386D01*
X47983048Y-37070381D01*
X47983046Y-37070374D01*
X47892657Y-36838730D01*
X47892656Y-36838727D01*
X47765366Y-36625106D01*
X47765363Y-36625103D01*
X47765360Y-36625097D01*
X47604651Y-36435350D01*
X47604650Y-36435349D01*
X47473915Y-36324622D01*
X47435480Y-36266274D01*
X47434693Y-36196409D01*
X47471802Y-36137208D01*
X47473915Y-36135378D01*
X47604650Y-36024650D01*
X47604651Y-36024649D01*
X47765360Y-35834902D01*
X47765361Y-35834898D01*
X47765366Y-35834894D01*
X47892656Y-35621273D01*
X47983050Y-35389614D01*
X48034081Y-35146237D01*
X48040500Y-35042842D01*
X48040500Y-34877158D01*
X48034081Y-34773763D01*
X47983050Y-34530386D01*
X47983048Y-34530381D01*
X47983046Y-34530374D01*
X47892657Y-34298730D01*
X47892656Y-34298727D01*
X47765366Y-34085106D01*
X47765363Y-34085103D01*
X47765360Y-34085097D01*
X47604651Y-33895350D01*
X47604650Y-33895349D01*
X47473915Y-33784622D01*
X47435480Y-33726274D01*
X47434693Y-33656409D01*
X47471802Y-33597208D01*
X47473915Y-33595378D01*
X47604650Y-33484650D01*
X47604651Y-33484649D01*
X47765360Y-33294902D01*
X47765361Y-33294898D01*
X47765366Y-33294894D01*
X47892656Y-33081273D01*
X47983050Y-32849614D01*
X48034081Y-32606237D01*
X48040500Y-32502842D01*
X48040500Y-32337158D01*
X48034081Y-32233763D01*
X47983050Y-31990386D01*
X47983048Y-31990381D01*
X47983046Y-31990374D01*
X47892657Y-31758730D01*
X47892656Y-31758727D01*
X47765366Y-31545106D01*
X47765363Y-31545103D01*
X47765360Y-31545097D01*
X47604651Y-31355350D01*
X47604650Y-31355349D01*
X47473915Y-31244622D01*
X47435480Y-31186274D01*
X47434693Y-31116409D01*
X47471802Y-31057208D01*
X47473915Y-31055378D01*
X47604650Y-30944650D01*
X47604651Y-30944649D01*
X47765360Y-30754902D01*
X47765361Y-30754898D01*
X47765366Y-30754894D01*
X47892656Y-30541273D01*
X47983050Y-30309614D01*
X48034081Y-30066237D01*
X48040500Y-29962842D01*
X48040500Y-29797158D01*
X48034081Y-29693763D01*
X47983050Y-29450386D01*
X47983048Y-29450381D01*
X47983046Y-29450374D01*
X47892657Y-29218730D01*
X47892656Y-29218727D01*
X47765366Y-29005106D01*
X47765363Y-29005103D01*
X47765360Y-29005097D01*
X47604653Y-28815352D01*
X47473527Y-28704293D01*
X47435093Y-28645944D01*
X47434306Y-28576079D01*
X47471416Y-28516879D01*
X47473528Y-28515048D01*
X47604298Y-28404291D01*
X47764953Y-28214608D01*
X47892206Y-28001049D01*
X47982564Y-27769482D01*
X47982567Y-27769472D01*
X48020199Y-27590000D01*
X44309801Y-27590000D01*
X44347432Y-27769472D01*
X44347435Y-27769482D01*
X44437793Y-28001049D01*
X44565046Y-28214608D01*
X44725703Y-28404294D01*
X44725705Y-28404296D01*
X44856471Y-28515050D01*
X44894906Y-28573399D01*
X44895693Y-28643264D01*
X44858584Y-28702464D01*
X44856472Y-28704294D01*
X44725346Y-28815352D01*
X44564639Y-29005097D01*
X44437342Y-29218730D01*
X44346953Y-29450374D01*
X44346950Y-29450384D01*
X44295919Y-29693761D01*
X44295918Y-29693764D01*
X44289500Y-29797149D01*
X44289500Y-29962850D01*
X44295918Y-30066235D01*
X44295919Y-30066238D01*
X44346950Y-30309615D01*
X44346953Y-30309625D01*
X44437342Y-30541269D01*
X44564639Y-30754902D01*
X44725348Y-30944649D01*
X44725350Y-30944651D01*
X44856084Y-31055378D01*
X44894519Y-31113727D01*
X44895306Y-31183592D01*
X44858197Y-31242792D01*
X44856084Y-31244622D01*
X44725350Y-31355348D01*
X44725348Y-31355350D01*
X44564639Y-31545097D01*
X44437342Y-31758730D01*
X44346953Y-31990374D01*
X44346950Y-31990384D01*
X44295919Y-32233761D01*
X44295918Y-32233764D01*
X44289500Y-32337149D01*
X44289500Y-32502850D01*
X44295918Y-32606235D01*
X44295919Y-32606238D01*
X44346950Y-32849615D01*
X44346953Y-32849625D01*
X44437342Y-33081269D01*
X44564639Y-33294902D01*
X44725348Y-33484649D01*
X44725350Y-33484651D01*
X44856084Y-33595378D01*
X44894519Y-33653727D01*
X44895306Y-33723592D01*
X44858197Y-33782792D01*
X44856084Y-33784622D01*
X44725350Y-33895348D01*
X44725348Y-33895350D01*
X44564639Y-34085097D01*
X44437342Y-34298730D01*
X44346953Y-34530374D01*
X44346950Y-34530384D01*
X44295919Y-34773761D01*
X44295918Y-34773764D01*
X44289500Y-34877149D01*
X44289500Y-35042850D01*
X44295918Y-35146235D01*
X44295919Y-35146238D01*
X44346950Y-35389615D01*
X44346953Y-35389625D01*
X44437342Y-35621269D01*
X44564639Y-35834902D01*
X44725348Y-36024649D01*
X44725350Y-36024651D01*
X44856084Y-36135378D01*
X44894519Y-36193727D01*
X44895306Y-36263592D01*
X44858197Y-36322792D01*
X44856084Y-36324622D01*
X44725350Y-36435348D01*
X44725348Y-36435350D01*
X44564639Y-36625097D01*
X44437342Y-36838730D01*
X44346953Y-37070374D01*
X44346950Y-37070384D01*
X44295919Y-37313761D01*
X44295918Y-37313764D01*
X44289500Y-37417149D01*
X44289500Y-37582850D01*
X44295918Y-37686235D01*
X44295919Y-37686238D01*
X44346950Y-37929615D01*
X44346953Y-37929625D01*
X44437342Y-38161269D01*
X44564639Y-38374902D01*
X44725348Y-38564649D01*
X44725350Y-38564651D01*
X44856084Y-38675378D01*
X44894519Y-38733727D01*
X44895306Y-38803592D01*
X44858197Y-38862792D01*
X44856084Y-38864622D01*
X44725350Y-38975348D01*
X44725348Y-38975350D01*
X44564639Y-39165097D01*
X44437342Y-39378730D01*
X44346953Y-39610374D01*
X44346950Y-39610384D01*
X44295919Y-39853761D01*
X44295918Y-39853764D01*
X44289500Y-39957149D01*
X44289500Y-40122850D01*
X31875500Y-40122850D01*
X31875500Y-40122842D01*
X31875500Y-39957158D01*
X31869081Y-39853763D01*
X31818050Y-39610386D01*
X31818048Y-39610381D01*
X31818046Y-39610374D01*
X31727657Y-39378730D01*
X31727656Y-39378727D01*
X31600366Y-39165106D01*
X31600363Y-39165103D01*
X31600360Y-39165097D01*
X31439651Y-38975350D01*
X31439650Y-38975349D01*
X31308915Y-38864622D01*
X31270480Y-38806274D01*
X31269693Y-38736409D01*
X31306802Y-38677208D01*
X31308915Y-38675378D01*
X31439650Y-38564650D01*
X31439651Y-38564649D01*
X31600360Y-38374902D01*
X31600361Y-38374898D01*
X31600366Y-38374894D01*
X31727656Y-38161273D01*
X31818050Y-37929614D01*
X31869081Y-37686237D01*
X31875500Y-37582842D01*
X31875500Y-37417158D01*
X31869081Y-37313763D01*
X31818050Y-37070386D01*
X31818048Y-37070381D01*
X31818046Y-37070374D01*
X31727657Y-36838730D01*
X31727656Y-36838727D01*
X31600366Y-36625106D01*
X31600363Y-36625103D01*
X31600360Y-36625097D01*
X31439651Y-36435350D01*
X31439650Y-36435349D01*
X31308915Y-36324622D01*
X31270480Y-36266274D01*
X31269693Y-36196409D01*
X31306802Y-36137208D01*
X31308915Y-36135378D01*
X31439650Y-36024650D01*
X31439651Y-36024649D01*
X31600360Y-35834902D01*
X31600361Y-35834898D01*
X31600366Y-35834894D01*
X31727656Y-35621273D01*
X31818050Y-35389614D01*
X31869081Y-35146237D01*
X31875500Y-35042842D01*
X31875500Y-34877158D01*
X31869081Y-34773763D01*
X31818050Y-34530386D01*
X31818048Y-34530381D01*
X31818046Y-34530374D01*
X31727657Y-34298730D01*
X31727656Y-34298727D01*
X31600366Y-34085106D01*
X31600363Y-34085103D01*
X31600360Y-34085097D01*
X31439651Y-33895350D01*
X31439650Y-33895349D01*
X31308915Y-33784622D01*
X31270480Y-33726274D01*
X31269693Y-33656409D01*
X31306802Y-33597208D01*
X31308915Y-33595378D01*
X31439650Y-33484650D01*
X31439651Y-33484649D01*
X31600360Y-33294902D01*
X31600361Y-33294898D01*
X31600366Y-33294894D01*
X31727656Y-33081273D01*
X31818050Y-32849614D01*
X31869081Y-32606237D01*
X31875500Y-32502842D01*
X31875500Y-32337158D01*
X31869081Y-32233763D01*
X31818050Y-31990386D01*
X31818048Y-31990381D01*
X31818046Y-31990374D01*
X31727657Y-31758730D01*
X31727656Y-31758727D01*
X31600366Y-31545106D01*
X31600363Y-31545103D01*
X31600360Y-31545097D01*
X31439651Y-31355350D01*
X31439650Y-31355349D01*
X31308915Y-31244622D01*
X31270480Y-31186274D01*
X31269693Y-31116409D01*
X31306802Y-31057208D01*
X31308915Y-31055378D01*
X31439650Y-30944650D01*
X31439651Y-30944649D01*
X31600360Y-30754902D01*
X31600361Y-30754898D01*
X31600366Y-30754894D01*
X31727656Y-30541273D01*
X31818050Y-30309614D01*
X31869081Y-30066237D01*
X31875500Y-29962842D01*
X31875500Y-29797158D01*
X31869081Y-29693763D01*
X31818050Y-29450386D01*
X31818048Y-29450381D01*
X31818046Y-29450374D01*
X31791951Y-29383500D01*
X32149500Y-29383500D01*
X32149500Y-33288500D01*
X35070500Y-33288500D01*
X35070500Y-29383500D01*
X32149500Y-29383500D01*
X31791951Y-29383500D01*
X31727657Y-29218730D01*
X31727656Y-29218727D01*
X31600366Y-29005106D01*
X31600363Y-29005103D01*
X31600360Y-29005097D01*
X31439651Y-28815350D01*
X31439650Y-28815349D01*
X31308915Y-28704622D01*
X31270480Y-28646274D01*
X31269693Y-28576409D01*
X31306802Y-28517208D01*
X31308915Y-28515378D01*
X31439650Y-28404650D01*
X31439651Y-28404649D01*
X31600360Y-28214902D01*
X31600361Y-28214898D01*
X31600366Y-28214894D01*
X31727656Y-28001273D01*
X31818050Y-27769614D01*
X31869081Y-27526237D01*
X31875500Y-27422842D01*
X31875500Y-27257158D01*
X31869081Y-27153763D01*
X31818050Y-26910386D01*
X31818048Y-26910381D01*
X31818046Y-26910374D01*
X31727657Y-26678730D01*
X31727656Y-26678727D01*
X31600366Y-26465106D01*
X31600363Y-26465103D01*
X31600360Y-26465097D01*
X31439651Y-26275350D01*
X31439650Y-26275349D01*
X31308915Y-26164622D01*
X31270480Y-26106274D01*
X31269693Y-26036409D01*
X31306802Y-25977208D01*
X31308915Y-25975378D01*
X31395551Y-25902000D01*
X32848000Y-25902000D01*
X32848000Y-28569000D01*
X34626000Y-28569000D01*
X34626000Y-25902000D01*
X32848000Y-25902000D01*
X31395551Y-25902000D01*
X31439650Y-25864650D01*
X31439651Y-25864649D01*
X31600360Y-25674902D01*
X31600361Y-25674898D01*
X31600366Y-25674894D01*
X31727656Y-25461273D01*
X31818050Y-25229614D01*
X31869081Y-24986237D01*
X31875500Y-24882842D01*
X31875500Y-24717158D01*
X31869081Y-24613763D01*
X31818050Y-24370386D01*
X31818048Y-24370381D01*
X31818046Y-24370374D01*
X31727657Y-24138730D01*
X31727656Y-24138727D01*
X31600366Y-23925106D01*
X31600363Y-23925103D01*
X31600360Y-23925097D01*
X31439651Y-23735350D01*
X31439649Y-23735348D01*
X31249902Y-23574639D01*
X31120845Y-23497738D01*
X31036273Y-23447344D01*
X31036271Y-23447343D01*
X31036269Y-23447342D01*
X30804625Y-23356953D01*
X30804615Y-23356950D01*
X30561238Y-23305919D01*
X30561235Y-23305918D01*
X30457850Y-23299500D01*
X30457842Y-23299500D01*
X29542158Y-23299500D01*
X29542149Y-23299500D01*
X29438764Y-23305918D01*
X29438761Y-23305919D01*
X29195384Y-23356950D01*
X29195374Y-23356953D01*
X28963730Y-23447342D01*
X28750097Y-23574639D01*
X28560350Y-23735348D01*
X28560348Y-23735350D01*
X28399639Y-23925097D01*
X28325725Y-24049142D01*
X28276779Y-24131285D01*
X28272197Y-24138974D01*
X28220970Y-24186488D01*
X28165674Y-24199500D01*
X25600097Y-24199500D01*
X25533058Y-24179815D01*
X25512416Y-24163181D01*
X25330700Y-23981465D01*
X25297215Y-23920142D01*
X25295163Y-23907686D01*
X25285368Y-23820745D01*
X25225789Y-23650478D01*
X25129816Y-23497738D01*
X25002262Y-23370184D01*
X24939424Y-23330700D01*
X24849523Y-23274211D01*
X24679254Y-23214631D01*
X24679249Y-23214630D01*
X24500004Y-23194435D01*
X24499996Y-23194435D01*
X24320750Y-23214630D01*
X24320742Y-23214632D01*
X24165454Y-23268970D01*
X24095676Y-23272531D01*
X24035048Y-23237802D01*
X24002821Y-23175809D01*
X24000500Y-23151928D01*
X24000500Y-22124500D01*
X24020185Y-22057461D01*
X24072989Y-22011706D01*
X24124500Y-22000500D01*
X32724000Y-22000500D01*
X32791039Y-22020185D01*
G37*
G04 #@! TD.AperFunction*
M02*
